<svg xmlns="http://www.w3.org/2000/svg" xmlns:xlink="http://www.w3.org/1999/xlink" width="100" zoomAndPan="magnify" viewBox="0 0 75 37.5" height="50" preserveAspectRatio="xMidYMid meet" version="1.0"><defs><g/><clipPath id="a05350543d"><path d="M 7 7.46875 L 18 7.46875 L 18 31.152344 L 7 31.152344 Z M 7 7.46875 " clip-rule="nonzero"/></clipPath><clipPath id="e1f157c775"><path d="M 4.195312 7.46875 L 27 7.46875 L 27 30 L 4.195312 30 Z M 4.195312 7.46875 " clip-rule="nonzero"/></clipPath></defs><g clip-path="url(#a05350543d)"><path fill="#ef5241" d="M 10.476562 20.402344 L 7.597656 20.402344 L 7.597656 8.324219 C 7.597656 7.703125 8.445312 7.523438 8.699219 8.09375 L 13.25 18.390625 L 17.019531 18.390625 L 11.578125 30.699219 C 11.328125 31.269531 10.476562 31.089844 10.476562 30.46875 Z M 10.476562 20.402344 " fill-opacity="1" fill-rule="nonzero"/></g><g clip-path="url(#e1f157c775)"><path fill="#01204e" d="M 12.765625 15.023438 L 21.894531 15.023438 C 22.363281 17.203125 23.003906 19.363281 23.816406 21.476562 L 16.617188 21.476562 L 18.414062 17.414062 L 13.824219 17.414062 Z M 12.28125 13.921875 L 21.671875 13.921875 C 21.339844 12.140625 21.121094 10.34375 21.019531 8.546875 C 20.988281 7.941406 20.480469 7.46875 19.871094 7.46875 L 14.976562 7.46875 C 13.167969 7.46875 11.464844 7.914062 9.972656 8.699219 Z M 9.519531 21.277344 L 6.640625 21.277344 L 6.640625 11.414062 C 5.113281 13.273438 4.195312 15.65625 4.195312 18.25 C 4.195312 22.210938 6.335938 25.675781 9.519531 27.546875 Z M 24.257812 22.578125 L 16.132812 22.578125 L 13.332031 28.90625 C 13.871094 28.988281 14.417969 29.03125 14.976562 29.03125 L 25.558594 29.03125 C 26.433594 29.03125 26.992188 28.085938 26.5625 27.320312 C 25.695312 25.773438 24.925781 24.1875 24.257812 22.578125 Z M 24.257812 22.578125 " fill-opacity="1" fill-rule="nonzero"/></g><g fill="#01204e" fill-opacity="1"><g transform="translate(29.729488, 16.624595)"><g><path d="M 0.953125 -8.078125 L 8.90625 -8.078125 L 8.90625 -6.46875 L 8.609375 -6.453125 C 8.523438 -6.453125 8.382812 -6.441406 8.1875 -6.421875 C 7.988281 -6.410156 7.765625 -6.394531 7.515625 -6.375 C 7.273438 -6.363281 7.023438 -6.347656 6.765625 -6.328125 C 6.503906 -6.304688 6.265625 -6.285156 6.046875 -6.265625 C 5.828125 -6.242188 5.640625 -6.222656 5.484375 -6.203125 C 5.335938 -6.179688 5.25 -6.164062 5.21875 -6.15625 C 4.3125 -6.113281 3.859375 -6.078125 3.859375 -6.046875 C 3.835938 -6.035156 3.929688 -5.65625 4.140625 -4.90625 C 4.148438 -4.882812 4.160156 -4.863281 4.171875 -4.84375 C 4.191406 -4.832031 4.222656 -4.835938 4.265625 -4.859375 C 4.273438 -4.859375 4.304688 -4.859375 4.359375 -4.859375 C 4.421875 -4.859375 4.503906 -4.863281 4.609375 -4.875 C 4.703125 -4.882812 4.820312 -4.894531 4.96875 -4.90625 C 5.125 -4.925781 5.289062 -4.945312 5.46875 -4.96875 C 5.644531 -4.988281 5.832031 -5.007812 6.03125 -5.03125 C 6.226562 -5.050781 6.414062 -5.070312 6.59375 -5.09375 C 7.34375 -5.15625 7.898438 -5.203125 8.265625 -5.234375 C 8.640625 -5.273438 8.835938 -5.296875 8.859375 -5.296875 C 8.867188 -5.296875 8.875 -5.289062 8.875 -5.28125 C 8.882812 -5.269531 8.890625 -5.238281 8.890625 -5.1875 C 8.898438 -5.144531 8.90625 -5.070312 8.90625 -4.96875 C 8.90625 -4.863281 8.90625 -4.710938 8.90625 -4.515625 L 8.90625 -3.765625 L 8.828125 -3.71875 C 8.734375 -3.707031 8.609375 -3.691406 8.453125 -3.671875 C 8.296875 -3.648438 8.109375 -3.617188 7.890625 -3.578125 C 5.710938 -3.242188 4.617188 -3.070312 4.609375 -3.0625 C 4.609375 -3.039062 4.613281 -3 4.625 -2.9375 C 4.632812 -2.882812 4.65625 -2.800781 4.6875 -2.6875 C 4.738281 -2.476562 4.78125 -2.257812 4.8125 -2.03125 C 4.820312 -1.894531 4.832031 -1.8125 4.84375 -1.78125 C 4.851562 -1.75 4.875 -1.734375 4.90625 -1.734375 C 4.925781 -1.734375 5.085938 -1.753906 5.390625 -1.796875 C 5.691406 -1.847656 6.132812 -1.925781 6.71875 -2.03125 C 7.320312 -2.132812 7.796875 -2.21875 8.140625 -2.28125 C 8.492188 -2.34375 8.71875 -2.378906 8.8125 -2.390625 L 8.90625 -2.40625 L 8.90625 0.265625 L 0.953125 0.265625 Z M 0.953125 -8.078125 "/></g></g></g><g fill="#01204e" fill-opacity="1"><g transform="translate(39.238826, 16.624595)"><g><path d="M 0.34375 -5.890625 L 0.3125 -5.984375 L 2.609375 -5.984375 L 2.640625 -5.90625 C 2.722656 -5.351562 2.804688 -4.859375 2.890625 -4.421875 C 2.984375 -3.992188 3.0625 -3.617188 3.125 -3.296875 C 3.144531 -3.203125 3.164062 -3.085938 3.1875 -2.953125 C 3.21875 -2.828125 3.242188 -2.703125 3.265625 -2.578125 C 3.285156 -2.453125 3.300781 -2.335938 3.3125 -2.234375 C 3.320312 -2.140625 3.328125 -2.082031 3.328125 -2.0625 L 3.421875 -1.671875 C 3.453125 -1.703125 3.675781 -2.785156 4.09375 -4.921875 L 4.296875 -5.984375 L 5.4375 -5.984375 C 6.1875 -5.984375 6.5625 -5.984375 6.5625 -5.984375 C 6.59375 -5.941406 6.398438 -4.914062 5.984375 -2.90625 C 5.773438 -1.882812 5.613281 -1.117188 5.5 -0.609375 C 5.394531 -0.0976562 5.335938 0.175781 5.328125 0.21875 C 5.304688 0.25 4.671875 0.265625 3.421875 0.265625 L 1.5625 0.234375 L 1.390625 -0.640625 C 1.367188 -0.734375 1.34375 -0.847656 1.3125 -0.984375 C 1.28125 -1.117188 1.242188 -1.28125 1.203125 -1.46875 C 1.128906 -1.84375 1.09375 -2.054688 1.09375 -2.109375 C 0.84375 -3.347656 0.65625 -4.28125 0.53125 -4.90625 C 0.414062 -5.53125 0.351562 -5.859375 0.34375 -5.890625 Z M 0.34375 -5.890625 "/></g></g></g><g fill="#01204e" fill-opacity="1"><g transform="translate(45.909692, 16.624595)"><g><path d="M 5.015625 -3.9375 C 5.015625 -4.101562 5.007812 -4.234375 5 -4.328125 C 5 -4.421875 4.988281 -4.46875 4.96875 -4.46875 C 4.957031 -4.457031 4.875 -4.441406 4.71875 -4.421875 C 4.5625 -4.410156 4.375 -4.375 4.15625 -4.3125 L 3.34375 -4.15625 L 3.34375 -3.859375 C 3.320312 -3.710938 3.3125 -3.628906 3.3125 -3.609375 C 3.320312 -3.585938 3.347656 -3.566406 3.390625 -3.546875 C 3.441406 -3.546875 3.695312 -3.519531 4.15625 -3.46875 C 4.382812 -3.457031 4.5625 -3.445312 4.6875 -3.4375 C 4.8125 -3.425781 4.890625 -3.421875 4.921875 -3.421875 L 5.015625 -3.421875 Z M 0.84375 -6 L 1.59375 -5.984375 L 6.5625 -5.984375 L 7.375 -6 L 7.375 -2.65625 L 6.40625 -2.515625 C 6.269531 -2.503906 6.035156 -2.472656 5.703125 -2.421875 C 5.367188 -2.378906 4.929688 -2.316406 4.390625 -2.234375 L 3.3125 -2.078125 L 3.3125 -1.71875 C 3.3125 -1.550781 3.3125 -1.453125 3.3125 -1.421875 C 3.320312 -1.390625 3.347656 -1.375 3.390625 -1.375 C 3.410156 -1.375 3.488281 -1.378906 3.625 -1.390625 C 3.757812 -1.410156 3.941406 -1.4375 4.171875 -1.46875 C 4.242188 -1.46875 4.382812 -1.484375 4.59375 -1.515625 C 4.8125 -1.546875 5.113281 -1.585938 5.5 -1.640625 C 5.601562 -1.660156 5.753906 -1.679688 5.953125 -1.703125 C 6.148438 -1.722656 6.382812 -1.753906 6.65625 -1.796875 C 7.019531 -1.847656 7.226562 -1.875 7.28125 -1.875 L 7.375 -1.875 L 7.375 -0.78125 L 7.359375 0.28125 L 0.84375 0.28125 Z M 0.84375 -6 "/></g></g></g><g fill="#01204e" fill-opacity="1"><g transform="translate(53.886015, 16.624595)"><g><path d="M 0.84375 -5.984375 L 5.609375 -5.96875 L 7.53125 -5.96875 L 7.53125 0.3125 L 4.953125 0.3125 L 4.953125 0.265625 C 4.953125 0.203125 4.941406 0.015625 4.921875 -0.296875 C 4.910156 -0.609375 4.898438 -1.039062 4.890625 -1.59375 C 4.859375 -2.6875 4.832031 -3.34375 4.8125 -3.5625 C 4.8125 -3.84375 4.796875 -3.984375 4.765625 -3.984375 C 4.753906 -3.984375 4.691406 -3.972656 4.578125 -3.953125 C 4.472656 -3.941406 4.320312 -3.910156 4.125 -3.859375 C 4.019531 -3.835938 3.925781 -3.816406 3.84375 -3.796875 C 3.769531 -3.785156 3.707031 -3.773438 3.65625 -3.765625 C 3.601562 -3.742188 3.554688 -3.734375 3.515625 -3.734375 C 3.492188 -3.734375 3.4375 -3.097656 3.34375 -1.828125 C 3.300781 -1.179688 3.269531 -0.679688 3.25 -0.328125 C 3.226562 0.015625 3.207031 0.210938 3.1875 0.265625 L 3.1875 0.3125 L 0.84375 0.3125 Z M 0.84375 -5.984375 "/></g></g></g><g fill="#01204e" fill-opacity="1"><g transform="translate(62.006065, 16.624595)"><g><path d="M 1.5625 -7.203125 L 4.65625 -7.203125 L 4.65625 -6.078125 L 5.0625 -6.09375 C 5.269531 -6.09375 5.425781 -6.09375 5.53125 -6.09375 C 5.632812 -6.101562 5.6875 -6.109375 5.6875 -6.109375 L 5.921875 -6.109375 L 5.921875 -3.625 L 5.296875 -3.609375 L 4.65625 -3.609375 L 4.65625 -0.984375 L 5.9375 -1.46875 L 5.9375 0.265625 L 2.34375 0.265625 L 1.96875 -0.140625 L 1.5625 -0.53125 L 1.5625 -3.609375 L 0.390625 -3.609375 L 0.390625 -5.78125 L 0.734375 -5.78125 C 0.796875 -5.78125 0.894531 -5.785156 1.03125 -5.796875 C 1.164062 -5.816406 1.265625 -5.828125 1.328125 -5.828125 L 1.5625 -5.84375 Z M 1.5625 -7.203125 "/></g></g></g><g fill="#ef5241" fill-opacity="1"><g transform="translate(30.522062, 27.896762)"><g><path d="M 6.5 -2.453125 L 6.515625 -3.09375 L 6.40625 -3.09375 C 6.332031 -3.082031 6.207031 -3.066406 6.03125 -3.046875 C 5.863281 -3.023438 5.617188 -3.003906 5.296875 -2.984375 C 4.972656 -2.953125 4.722656 -2.929688 4.546875 -2.921875 C 4.378906 -2.910156 4.285156 -2.90625 4.265625 -2.90625 L 4.203125 -2.90625 L 4.203125 -1.625 L 4.390625 -1.65625 C 4.992188 -1.726562 5.457031 -1.78125 5.78125 -1.8125 C 6.101562 -1.851562 6.3125 -1.875 6.40625 -1.875 L 6.5 -1.875 Z M 5.453125 -5.84375 C 5.234375 -5.882812 5.03125 -5.914062 4.84375 -5.9375 C 4.65625 -5.96875 4.484375 -6.003906 4.328125 -6.046875 L 4.203125 -6.046875 L 4.203125 -4.53125 L 5.046875 -4.421875 C 5.285156 -4.390625 5.492188 -4.363281 5.671875 -4.34375 C 5.847656 -4.332031 6.003906 -4.316406 6.140625 -4.296875 C 6.222656 -4.296875 6.289062 -4.289062 6.34375 -4.28125 C 6.394531 -4.269531 6.429688 -4.265625 6.453125 -4.265625 C 6.484375 -4.285156 6.5 -4.523438 6.5 -4.984375 C 6.5 -5.441406 6.5 -5.671875 6.5 -5.671875 C 6.476562 -5.671875 6.378906 -5.6875 6.203125 -5.71875 C 6.035156 -5.757812 5.785156 -5.800781 5.453125 -5.84375 Z M 0.96875 -4.453125 L 0.953125 -8.125 L 8.125 -8.125 L 8.515625 -7.796875 C 8.710938 -7.617188 8.863281 -7.476562 8.96875 -7.375 C 9.070312 -7.269531 9.144531 -7.203125 9.1875 -7.171875 L 9.484375 -6.921875 L 9.375 -5.953125 C 9.320312 -5.566406 9.289062 -5.265625 9.28125 -5.046875 C 9.28125 -4.828125 9.269531 -4.675781 9.25 -4.59375 C 9.238281 -4.457031 9.222656 -4.335938 9.203125 -4.234375 C 9.191406 -4.140625 9.1875 -4.054688 9.1875 -3.984375 C 9.1875 -3.921875 9.203125 -3.75 9.234375 -3.46875 C 9.265625 -3.195312 9.304688 -2.828125 9.359375 -2.359375 L 9.515625 -0.9375 L 9.09375 -0.53125 C 9.019531 -0.457031 8.929688 -0.375 8.828125 -0.28125 C 8.734375 -0.1875 8.613281 -0.0703125 8.46875 0.0625 L 8.265625 0.265625 L 0.96875 0.265625 Z M 0.96875 -4.453125 "/></g></g></g><g fill="#ef5241" fill-opacity="1"><g transform="translate(40.750005, 27.896762)"><g><path d="M 0.84375 -8.15625 L 3.1875 -8.15625 L 3.1875 -1.6875 L 4.796875 -2.15625 L 4.796875 0.265625 L 0.84375 0.265625 Z M 0.84375 -8.15625 "/></g></g></g><g fill="#ef5241" fill-opacity="1"><g transform="translate(45.780072, 27.896762)"><g><path d="M 4.9375 -2.234375 L 4.96875 -2.515625 C 4.90625 -2.503906 4.757812 -2.484375 4.53125 -2.453125 C 4.300781 -2.429688 4.0625 -2.40625 3.8125 -2.375 C 3.5625 -2.34375 3.335938 -2.3125 3.140625 -2.28125 C 2.941406 -2.25 2.835938 -2.234375 2.828125 -2.234375 L 2.8125 -1.609375 C 2.84375 -1.609375 2.945312 -1.617188 3.125 -1.640625 C 3.300781 -1.660156 3.554688 -1.707031 3.890625 -1.78125 C 4.222656 -1.832031 4.472656 -1.875 4.640625 -1.90625 C 4.816406 -1.945312 4.90625 -1.96875 4.90625 -1.96875 C 4.90625 -1.96875 4.914062 -2.054688 4.9375 -2.234375 Z M 0.84375 -6 L 7.15625 -6 L 7.15625 0.265625 L 4.859375 0.265625 L 4.859375 0 C 4.859375 -0.144531 4.847656 -0.21875 4.828125 -0.21875 L 0.84375 0.25 L 0.84375 -3.53125 L 5.03125 -4.03125 L 5.03125 -4.25 C 5.050781 -4.382812 5.050781 -4.457031 5.03125 -4.46875 L 0.890625 -4.046875 Z M 0.84375 -6 "/></g></g></g><g fill="#ef5241" fill-opacity="1"><g transform="translate(53.528841, 27.896762)"><g><path d="M 0.84375 -5.984375 L 7.078125 -5.984375 L 7.078125 -4.703125 C 7.078125 -3.835938 7.0625 -3.40625 7.03125 -3.40625 C 6.988281 -3.40625 6.726562 -3.4375 6.25 -3.5 C 5.78125 -3.570312 5.085938 -3.679688 4.171875 -3.828125 C 4.015625 -3.847656 3.890625 -3.863281 3.796875 -3.875 C 3.703125 -3.894531 3.644531 -3.90625 3.625 -3.90625 C 3.59375 -3.90625 3.601562 -3.800781 3.65625 -3.59375 C 3.707031 -3.382812 3.734375 -3.273438 3.734375 -3.265625 C 3.753906 -3.234375 4.289062 -3.132812 5.34375 -2.96875 C 5.875 -2.882812 6.273438 -2.820312 6.546875 -2.78125 C 6.828125 -2.75 6.984375 -2.734375 7.015625 -2.734375 C 7.054688 -2.742188 7.078125 -2.679688 7.078125 -2.546875 L 7.078125 0.265625 L 0.84375 0.265625 L 0.84375 -0.84375 C 0.84375 -1.601562 0.847656 -1.984375 0.859375 -1.984375 C 0.867188 -1.984375 0.914062 -1.972656 1 -1.953125 C 1.09375 -1.941406 1.21875 -1.925781 1.375 -1.90625 C 2.125 -1.800781 2.6875 -1.726562 3.0625 -1.6875 C 3.445312 -1.644531 3.660156 -1.625 3.703125 -1.625 C 3.722656 -1.625 3.734375 -1.722656 3.734375 -1.921875 L 3.734375 -2.25 L 3.390625 -2.296875 C 2.910156 -2.359375 2.484375 -2.414062 2.109375 -2.46875 C 1.742188 -2.53125 1.421875 -2.585938 1.140625 -2.640625 L 0.84375 -2.6875 Z M 0.84375 -5.984375 "/></g></g></g><g fill="#ef5241" fill-opacity="1"><g transform="translate(61.205753, 27.896762)"><g><path d="M 1.5625 -7.203125 L 4.65625 -7.203125 L 4.65625 -6.078125 L 5.0625 -6.09375 C 5.269531 -6.09375 5.425781 -6.09375 5.53125 -6.09375 C 5.632812 -6.101562 5.6875 -6.109375 5.6875 -6.109375 L 5.921875 -6.109375 L 5.921875 -3.625 L 5.296875 -3.609375 L 4.65625 -3.609375 L 4.65625 -0.984375 L 5.9375 -1.46875 L 5.9375 0.265625 L 2.34375 0.265625 L 1.96875 -0.140625 L 1.5625 -0.53125 L 1.5625 -3.609375 L 0.390625 -3.609375 L 0.390625 -5.78125 L 0.734375 -5.78125 C 0.796875 -5.78125 0.894531 -5.785156 1.03125 -5.796875 C 1.164062 -5.816406 1.265625 -5.828125 1.328125 -5.828125 L 1.5625 -5.84375 Z M 1.5625 -7.203125 "/></g></g></g></svg>