<svg xmlns="http://www.w3.org/2000/svg" xmlns:xlink="http://www.w3.org/1999/xlink" width="100" zoomAndPan="magnify" viewBox="0 0 75 37.5" height="50" preserveAspectRatio="xMidYMid meet" version="1.0"><defs><g/><clipPath id="b6dd10a128"><path d="M 2.714844 7 L 22 7 L 22 29 L 2.714844 29 Z M 2.714844 7 " clip-rule="nonzero"/></clipPath><clipPath id="f9fb67fea6"><path d="M 9 13 L 24.175781 13 L 24.175781 17 L 9 17 Z M 9 13 " clip-rule="nonzero"/></clipPath><clipPath id="037bb42f41"><path d="M 9 19 L 24.175781 19 L 24.175781 23 L 9 23 Z M 9 19 " clip-rule="nonzero"/></clipPath></defs><g clip-path="url(#b6dd10a128)"><path fill="#5e17eb" d="M 13.824219 25.589844 C 13.324219 25.589844 12.828125 25.542969 12.339844 25.445312 C 11.847656 25.347656 11.371094 25.203125 10.910156 25.011719 C 10.449219 24.820312 10.011719 24.585938 9.59375 24.304688 C 9.179688 24.027344 8.792969 23.710938 8.441406 23.359375 C 8.085938 23.003906 7.773438 22.621094 7.496094 22.203125 C 7.214844 21.789062 6.980469 21.351562 6.789062 20.886719 C 6.597656 20.425781 6.453125 19.949219 6.359375 19.460938 C 6.261719 18.96875 6.210938 18.472656 6.210938 17.972656 C 6.210938 17.472656 6.261719 16.980469 6.359375 16.488281 C 6.453125 15.996094 6.597656 15.523438 6.789062 15.058594 C 6.980469 14.597656 7.214844 14.160156 7.496094 13.742188 C 7.773438 13.328125 8.085938 12.941406 8.441406 12.589844 C 8.792969 12.234375 9.179688 11.917969 9.59375 11.640625 C 10.011719 11.363281 10.449219 11.128906 10.910156 10.9375 C 11.371094 10.746094 11.847656 10.601562 12.339844 10.503906 C 12.828125 10.40625 13.324219 10.355469 13.824219 10.355469 L 21.121094 10.355469 C 20.109375 9.34375 18.945312 8.5625 17.625 8.015625 C 16.304688 7.46875 14.929688 7.195312 13.5 7.199219 C 7.550781 7.199219 2.726562 12.023438 2.726562 17.972656 C 2.726562 23.925781 7.546875 28.75 13.5 28.75 C 14.929688 28.75 16.304688 28.476562 17.625 27.929688 C 18.945312 27.382812 20.109375 26.601562 21.121094 25.589844 Z M 13.824219 25.589844 " fill-opacity="1" fill-rule="nonzero"/></g><g clip-path="url(#f9fb67fea6)"><path fill="#322c4d" d="M 9.441406 16.480469 L 24.171875 16.480469 C 24.019531 15.386719 23.707031 14.339844 23.230469 13.34375 L 13.824219 13.34375 C 13.34375 13.34375 12.871094 13.417969 12.410156 13.566406 C 11.949219 13.714844 11.523438 13.929688 11.128906 14.210938 C 10.738281 14.492188 10.398438 14.824219 10.109375 15.214844 C 9.820312 15.601562 9.597656 16.023438 9.441406 16.480469 Z M 9.441406 16.480469 " fill-opacity="1" fill-rule="nonzero"/></g><g clip-path="url(#037bb42f41)"><path fill="#322c4d" d="M 13.824219 22.605469 L 23.230469 22.605469 C 23.707031 21.605469 24.023438 20.5625 24.171875 19.46875 L 9.441406 19.46875 C 9.597656 19.925781 9.820312 20.347656 10.109375 20.734375 C 10.398438 21.121094 10.738281 21.457031 11.128906 21.738281 C 11.523438 22.019531 11.949219 22.234375 12.410156 22.382812 C 12.871094 22.53125 13.34375 22.605469 13.824219 22.605469 Z M 13.824219 22.605469 " fill-opacity="1" fill-rule="nonzero"/></g><g fill="#000000" fill-opacity="1"><g transform="translate(27.457112, 16.681937)"><g><path d="M 0.828125 -7 L 7.71875 -7 L 7.71875 -5.609375 L 7.46875 -5.59375 C 7.394531 -5.59375 7.269531 -5.585938 7.09375 -5.578125 C 6.925781 -5.566406 6.734375 -5.550781 6.515625 -5.53125 C 6.304688 -5.507812 6.085938 -5.488281 5.859375 -5.46875 C 5.640625 -5.457031 5.429688 -5.441406 5.234375 -5.421875 C 5.046875 -5.410156 4.882812 -5.394531 4.75 -5.375 C 4.625 -5.351562 4.550781 -5.34375 4.53125 -5.34375 C 3.738281 -5.300781 3.34375 -5.269531 3.34375 -5.25 C 3.332031 -5.226562 3.414062 -4.898438 3.59375 -4.265625 C 3.601562 -4.242188 3.613281 -4.222656 3.625 -4.203125 C 3.632812 -4.191406 3.660156 -4.191406 3.703125 -4.203125 C 3.703125 -4.203125 3.726562 -4.203125 3.78125 -4.203125 C 3.832031 -4.203125 3.898438 -4.210938 3.984375 -4.234375 C 4.066406 -4.234375 4.175781 -4.238281 4.3125 -4.25 C 4.445312 -4.269531 4.59375 -4.285156 4.75 -4.296875 C 4.90625 -4.316406 5.066406 -4.335938 5.234375 -4.359375 C 5.398438 -4.378906 5.5625 -4.398438 5.71875 -4.421875 C 6.363281 -4.472656 6.847656 -4.515625 7.171875 -4.546875 C 7.492188 -4.578125 7.660156 -4.59375 7.671875 -4.59375 C 7.691406 -4.59375 7.703125 -4.585938 7.703125 -4.578125 C 7.703125 -4.566406 7.703125 -4.539062 7.703125 -4.5 C 7.710938 -4.457031 7.71875 -4.390625 7.71875 -4.296875 C 7.71875 -4.210938 7.71875 -4.085938 7.71875 -3.921875 L 7.71875 -3.265625 L 7.65625 -3.21875 C 7.570312 -3.207031 7.460938 -3.191406 7.328125 -3.171875 C 7.191406 -3.160156 7.03125 -3.140625 6.84375 -3.109375 C 4.957031 -2.816406 4.007812 -2.664062 4 -2.65625 C 4 -2.632812 4 -2.597656 4 -2.546875 C 4.007812 -2.503906 4.03125 -2.429688 4.0625 -2.328125 C 4.113281 -2.148438 4.148438 -1.957031 4.171875 -1.75 C 4.179688 -1.632812 4.1875 -1.5625 4.1875 -1.53125 C 4.195312 -1.507812 4.222656 -1.5 4.265625 -1.5 C 4.273438 -1.5 4.410156 -1.519531 4.671875 -1.5625 C 4.929688 -1.601562 5.316406 -1.664062 5.828125 -1.75 C 6.347656 -1.84375 6.757812 -1.914062 7.0625 -1.96875 C 7.363281 -2.03125 7.554688 -2.066406 7.640625 -2.078125 L 7.71875 -2.09375 L 7.71875 0.234375 L 0.828125 0.234375 Z M 0.828125 -7 "/></g></g></g><g fill="#000000" fill-opacity="1"><g transform="translate(36.573169, 16.681937)"><g><path d="M 0.4375 -7 C 0.445312 -7.019531 0.863281 -7.03125 1.6875 -7.03125 C 2.53125 -7.03125 2.957031 -7.015625 2.96875 -6.984375 C 2.96875 -6.972656 2.984375 -6.867188 3.015625 -6.671875 C 3.046875 -6.484375 3.09375 -6.203125 3.15625 -5.828125 C 3.363281 -4.566406 3.523438 -3.613281 3.640625 -2.96875 C 3.753906 -2.320312 3.816406 -1.976562 3.828125 -1.9375 L 3.9375 -2.515625 C 3.96875 -2.671875 4.015625 -2.941406 4.078125 -3.328125 C 4.140625 -3.722656 4.222656 -4.242188 4.328125 -4.890625 C 4.398438 -5.390625 4.457031 -5.769531 4.5 -6.03125 C 4.550781 -6.300781 4.582031 -6.457031 4.59375 -6.5 C 4.625 -6.6875 4.644531 -6.816406 4.65625 -6.890625 C 4.664062 -6.941406 4.671875 -6.988281 4.671875 -7.03125 C 4.679688 -7.03125 5.109375 -7.03125 5.953125 -7.03125 C 6.796875 -7.039062 7.21875 -7.039062 7.21875 -7.03125 C 7.21875 -7.007812 7.210938 -6.972656 7.203125 -6.921875 C 7.203125 -6.867188 7.195312 -6.796875 7.1875 -6.703125 C 7.144531 -6.523438 7.078125 -6.171875 6.984375 -5.640625 C 6.898438 -5.117188 6.78125 -4.410156 6.625 -3.515625 C 6.5625 -3.148438 6.488281 -2.695312 6.40625 -2.15625 C 6.320312 -1.613281 6.210938 -0.960938 6.078125 -0.203125 L 6.03125 0.21875 L 3.875 0.21875 L 1.734375 0.234375 L 1.65625 -0.171875 C 1.65625 -0.203125 1.640625 -0.285156 1.609375 -0.421875 C 1.585938 -0.566406 1.554688 -0.738281 1.515625 -0.9375 C 1.484375 -1.132812 1.445312 -1.34375 1.40625 -1.5625 C 1.363281 -1.789062 1.328125 -2 1.296875 -2.1875 C 1.003906 -3.800781 0.785156 -5.003906 0.640625 -5.796875 C 0.503906 -6.585938 0.4375 -6.988281 0.4375 -7 Z M 0.4375 -7 "/></g></g></g><g fill="#000000" fill-opacity="1"><g transform="translate(44.899243, 16.681937)"><g><path d="M 0.828125 -7 L 7.71875 -7 L 7.71875 -5.609375 L 7.46875 -5.59375 C 7.394531 -5.59375 7.269531 -5.585938 7.09375 -5.578125 C 6.925781 -5.566406 6.734375 -5.550781 6.515625 -5.53125 C 6.304688 -5.507812 6.085938 -5.488281 5.859375 -5.46875 C 5.640625 -5.457031 5.429688 -5.441406 5.234375 -5.421875 C 5.046875 -5.410156 4.882812 -5.394531 4.75 -5.375 C 4.625 -5.351562 4.550781 -5.34375 4.53125 -5.34375 C 3.738281 -5.300781 3.34375 -5.269531 3.34375 -5.25 C 3.332031 -5.226562 3.414062 -4.898438 3.59375 -4.265625 C 3.601562 -4.242188 3.613281 -4.222656 3.625 -4.203125 C 3.632812 -4.191406 3.660156 -4.191406 3.703125 -4.203125 C 3.703125 -4.203125 3.726562 -4.203125 3.78125 -4.203125 C 3.832031 -4.203125 3.898438 -4.210938 3.984375 -4.234375 C 4.066406 -4.234375 4.175781 -4.238281 4.3125 -4.25 C 4.445312 -4.269531 4.59375 -4.285156 4.75 -4.296875 C 4.90625 -4.316406 5.066406 -4.335938 5.234375 -4.359375 C 5.398438 -4.378906 5.5625 -4.398438 5.71875 -4.421875 C 6.363281 -4.472656 6.847656 -4.515625 7.171875 -4.546875 C 7.492188 -4.578125 7.660156 -4.59375 7.671875 -4.59375 C 7.691406 -4.59375 7.703125 -4.585938 7.703125 -4.578125 C 7.703125 -4.566406 7.703125 -4.539062 7.703125 -4.5 C 7.710938 -4.457031 7.71875 -4.390625 7.71875 -4.296875 C 7.71875 -4.210938 7.71875 -4.085938 7.71875 -3.921875 L 7.71875 -3.265625 L 7.65625 -3.21875 C 7.570312 -3.207031 7.460938 -3.191406 7.328125 -3.171875 C 7.191406 -3.160156 7.03125 -3.140625 6.84375 -3.109375 C 4.957031 -2.816406 4.007812 -2.664062 4 -2.65625 C 4 -2.632812 4 -2.597656 4 -2.546875 C 4.007812 -2.503906 4.03125 -2.429688 4.0625 -2.328125 C 4.113281 -2.148438 4.148438 -1.957031 4.171875 -1.75 C 4.179688 -1.632812 4.1875 -1.5625 4.1875 -1.53125 C 4.195312 -1.507812 4.222656 -1.5 4.265625 -1.5 C 4.273438 -1.5 4.410156 -1.519531 4.671875 -1.5625 C 4.929688 -1.601562 5.316406 -1.664062 5.828125 -1.75 C 6.347656 -1.84375 6.757812 -1.914062 7.0625 -1.96875 C 7.363281 -2.03125 7.554688 -2.066406 7.640625 -2.078125 L 7.71875 -2.09375 L 7.71875 0.234375 L 0.828125 0.234375 Z M 0.828125 -7 "/></g></g></g><g fill="#000000" fill-opacity="1"><g transform="translate(54.0153, 16.681937)"><g><path d="M 0.828125 -7.046875 L 3.359375 -7.046875 L 3.734375 -6.40625 C 3.960938 -6 4.1875 -5.601562 4.40625 -5.21875 C 4.625 -4.832031 4.816406 -4.488281 4.984375 -4.1875 C 5.160156 -3.882812 5.300781 -3.640625 5.40625 -3.453125 C 5.507812 -3.265625 5.5625 -3.171875 5.5625 -3.171875 C 5.5625 -3.171875 5.5625 -3.210938 5.5625 -3.296875 C 5.5625 -3.378906 5.570312 -3.628906 5.59375 -4.046875 C 5.613281 -4.472656 5.640625 -5.082031 5.671875 -5.875 C 5.671875 -5.882812 5.671875 -5.957031 5.671875 -6.09375 C 5.679688 -6.226562 5.695312 -6.425781 5.71875 -6.6875 L 5.71875 -7.03125 L 7.859375 -7.03125 L 7.859375 0.28125 L 5.34375 0.28125 L 3.5 -3.09375 C 3.445312 -3.144531 3.410156 -3.191406 3.390625 -3.234375 C 3.378906 -3.273438 3.375 -3.285156 3.375 -3.265625 C 3.351562 -3.265625 3.335938 -3.046875 3.328125 -2.609375 C 3.328125 -2.484375 3.320312 -2.300781 3.3125 -2.0625 C 3.300781 -1.820312 3.285156 -1.457031 3.265625 -0.96875 L 3.203125 0.28125 L 0.828125 0.28125 Z M 0.828125 -7.046875 "/></g></g></g><g fill="#000000" fill-opacity="1"><g transform="translate(63.37043, 16.681937)"><g><path d="M 0.328125 -7.0625 L 6.9375 -7.0625 L 6.9375 -5.734375 L 5.328125 -5.734375 L 5.328125 0.234375 L 2 0.234375 L 2 -5.734375 L 0.328125 -5.734375 Z M 0.328125 -7.0625 "/></g></g></g><g fill="#000000" fill-opacity="1"><g transform="translate(71.314227, 16.681937)"><g/></g></g><g fill="#000000" fill-opacity="1"><g transform="translate(29.247634, 27.458271)"><g><path d="M 5.640625 -2.125 L 5.65625 -2.6875 L 5.546875 -2.6875 C 5.492188 -2.675781 5.390625 -2.660156 5.234375 -2.640625 C 5.085938 -2.628906 4.875 -2.613281 4.59375 -2.59375 C 4.3125 -2.5625 4.09375 -2.539062 3.9375 -2.53125 C 3.789062 -2.519531 3.710938 -2.515625 3.703125 -2.515625 L 3.640625 -2.515625 L 3.640625 -1.40625 L 3.8125 -1.4375 C 4.332031 -1.5 4.734375 -1.546875 5.015625 -1.578125 C 5.296875 -1.609375 5.472656 -1.625 5.546875 -1.625 L 5.640625 -1.625 Z M 4.734375 -5.078125 C 4.546875 -5.109375 4.367188 -5.132812 4.203125 -5.15625 C 4.035156 -5.175781 3.882812 -5.207031 3.75 -5.25 L 3.640625 -5.25 L 3.640625 -3.921875 L 4.375 -3.828125 C 4.582031 -3.804688 4.765625 -3.785156 4.921875 -3.765625 C 5.078125 -3.753906 5.210938 -3.742188 5.328125 -3.734375 C 5.398438 -3.722656 5.457031 -3.710938 5.5 -3.703125 C 5.539062 -3.703125 5.570312 -3.703125 5.59375 -3.703125 C 5.625 -3.722656 5.640625 -3.929688 5.640625 -4.328125 C 5.640625 -4.722656 5.632812 -4.921875 5.625 -4.921875 C 5.613281 -4.921875 5.535156 -4.9375 5.390625 -4.96875 C 5.242188 -5 5.023438 -5.035156 4.734375 -5.078125 Z M 0.84375 -3.859375 L 0.828125 -7.046875 L 7.046875 -7.046875 L 7.375 -6.75 C 7.550781 -6.601562 7.679688 -6.484375 7.765625 -6.390625 C 7.859375 -6.304688 7.921875 -6.25 7.953125 -6.21875 L 8.234375 -6 L 8.125 -5.171875 C 8.082031 -4.835938 8.054688 -4.570312 8.046875 -4.375 C 8.046875 -4.1875 8.035156 -4.054688 8.015625 -3.984375 C 8.003906 -3.859375 7.992188 -3.753906 7.984375 -3.671875 C 7.972656 -3.585938 7.96875 -3.515625 7.96875 -3.453125 C 7.96875 -3.390625 7.976562 -3.238281 8 -3 C 8.03125 -2.769531 8.066406 -2.453125 8.109375 -2.046875 L 8.25 -0.8125 L 7.890625 -0.453125 C 7.828125 -0.390625 7.75 -0.316406 7.65625 -0.234375 C 7.570312 -0.160156 7.46875 -0.0664062 7.34375 0.046875 L 7.171875 0.234375 L 0.84375 0.234375 Z M 0.84375 -3.859375 "/></g></g></g><g fill="#000000" fill-opacity="1"><g transform="translate(38.98736, 27.458271)"><g><path d="M 0.828125 -7.09375 C 0.828125 -7.09375 0.882812 -7.09375 1 -7.09375 C 1.113281 -7.09375 1.265625 -7.09375 1.453125 -7.09375 C 1.640625 -7.101562 1.851562 -7.109375 2.09375 -7.109375 C 2.332031 -7.109375 2.578125 -7.109375 2.828125 -7.109375 L 3.828125 -7.109375 L 3.828125 -7.046875 C 3.828125 -7.003906 3.820312 -6.835938 3.8125 -6.546875 C 3.800781 -6.253906 3.78125 -5.882812 3.75 -5.4375 C 3.71875 -4.988281 3.6875 -4.488281 3.65625 -3.9375 C 3.625 -3.382812 3.585938 -2.828125 3.546875 -2.265625 C 3.523438 -1.972656 3.515625 -1.820312 3.515625 -1.8125 C 3.515625 -1.789062 3.550781 -1.785156 3.625 -1.796875 C 3.832031 -1.828125 4.140625 -1.882812 4.546875 -1.96875 C 4.953125 -2.050781 5.460938 -2.148438 6.078125 -2.265625 L 6.5 -2.34375 L 6.5 0.234375 L 0.828125 0.234375 Z M 0.828125 -7.09375 "/></g></g></g><g fill="#000000" fill-opacity="1"><g transform="translate(46.741736, 27.458271)"><g><path d="M 4.21875 -4.625 C 4.195312 -4.625 4.15625 -4.445312 4.09375 -4.09375 C 4.0625 -3.945312 4.039062 -3.832031 4.03125 -3.75 C 4.019531 -3.675781 4.015625 -3.617188 4.015625 -3.578125 C 4.023438 -3.546875 4.039062 -3.523438 4.0625 -3.515625 C 4.082031 -3.515625 4.113281 -3.515625 4.15625 -3.515625 C 4.195312 -3.515625 4.265625 -3.507812 4.359375 -3.5 C 4.453125 -3.5 4.578125 -3.492188 4.734375 -3.484375 C 5.054688 -3.441406 5.21875 -3.429688 5.21875 -3.453125 C 5.238281 -3.460938 5.222656 -3.640625 5.171875 -3.984375 C 5.128906 -4.148438 5.097656 -4.269531 5.078125 -4.34375 C 5.054688 -4.414062 5.035156 -4.460938 5.015625 -4.484375 C 5.003906 -4.492188 4.960938 -4.503906 4.890625 -4.515625 C 4.816406 -4.535156 4.734375 -4.550781 4.640625 -4.5625 C 4.554688 -4.582031 4.472656 -4.597656 4.390625 -4.609375 C 4.304688 -4.617188 4.25 -4.625 4.21875 -4.625 Z M 1.59375 -6.9375 L 1.609375 -7.03125 L 4.59375 -7.03125 C 5.601562 -7.039062 6.351562 -7.039062 6.84375 -7.03125 C 7.332031 -7.03125 7.578125 -7.03125 7.578125 -7.03125 C 7.578125 -7.007812 7.597656 -6.875 7.640625 -6.625 C 7.679688 -6.382812 7.742188 -6.019531 7.828125 -5.53125 C 7.941406 -4.8125 8.050781 -4.09375 8.15625 -3.375 C 8.269531 -2.664062 8.378906 -1.953125 8.484375 -1.234375 C 8.546875 -0.796875 8.597656 -0.457031 8.640625 -0.21875 C 8.679688 0.0195312 8.703125 0.144531 8.703125 0.15625 L 8.71875 0.234375 L 5.9375 0.234375 L 5.921875 0.171875 C 5.921875 0.140625 5.867188 -0.148438 5.765625 -0.703125 C 5.710938 -0.972656 5.675781 -1.175781 5.65625 -1.3125 C 5.644531 -1.457031 5.640625 -1.53125 5.640625 -1.53125 C 5.640625 -1.550781 5.296875 -1.5625 4.609375 -1.5625 L 3.625 -1.5625 L 3.578125 -1.40625 C 3.566406 -1.351562 3.546875 -1.253906 3.515625 -1.109375 C 3.492188 -0.960938 3.460938 -0.765625 3.421875 -0.515625 L 3.265625 0.234375 L 0.546875 0.234375 L 0.546875 0.140625 C 0.597656 -0.078125 0.695312 -0.738281 0.84375 -1.84375 C 0.851562 -1.875 0.863281 -1.914062 0.875 -1.96875 C 0.882812 -2.03125 0.894531 -2.09375 0.90625 -2.15625 C 0.914062 -2.21875 0.921875 -2.273438 0.921875 -2.328125 C 0.929688 -2.378906 0.9375 -2.414062 0.9375 -2.4375 C 1.125 -3.820312 1.273438 -4.882812 1.390625 -5.625 C 1.515625 -6.375 1.582031 -6.8125 1.59375 -6.9375 Z M 1.59375 -6.9375 "/></g></g></g><g fill="#000000" fill-opacity="1"><g transform="translate(56.678957, 27.458271)"><g><path d="M 0.71875 -7.03125 L 7.15625 -7.03125 L 7.15625 -4.015625 L 7.078125 -4.015625 C 7.015625 -4.015625 5.921875 -4.203125 3.796875 -4.578125 C 3.679688 -4.597656 3.59375 -4.613281 3.53125 -4.625 C 3.476562 -4.632812 3.441406 -4.640625 3.421875 -4.640625 C 3.429688 -4.617188 3.441406 -4.585938 3.453125 -4.546875 C 3.460938 -4.515625 3.472656 -4.472656 3.484375 -4.421875 C 3.492188 -4.378906 3.503906 -4.328125 3.515625 -4.265625 C 3.578125 -3.992188 3.617188 -3.847656 3.640625 -3.828125 C 3.640625 -3.828125 3.742188 -3.804688 3.953125 -3.765625 C 4.054688 -3.742188 4.316406 -3.703125 4.734375 -3.640625 C 5.148438 -3.578125 5.742188 -3.484375 6.515625 -3.359375 L 7.15625 -3.25 L 7.15625 0.234375 L 0.71875 0.234375 L 0.71875 -2.375 L 0.78125 -2.375 C 0.789062 -2.375 0.847656 -2.363281 0.953125 -2.34375 C 1.066406 -2.320312 1.238281 -2.289062 1.46875 -2.25 C 1.6875 -2.21875 1.867188 -2.1875 2.015625 -2.15625 C 2.171875 -2.132812 2.285156 -2.117188 2.359375 -2.109375 C 2.421875 -2.097656 2.519531 -2.082031 2.65625 -2.0625 C 2.800781 -2.039062 2.984375 -2.019531 3.203125 -2 C 3.367188 -1.96875 3.5 -1.941406 3.59375 -1.921875 C 3.6875 -1.910156 3.742188 -1.90625 3.765625 -1.90625 L 3.78125 -1.90625 C 3.789062 -1.90625 3.765625 -2.035156 3.703125 -2.296875 L 3.640625 -2.6875 L 3.203125 -2.78125 C 2.492188 -2.914062 1.941406 -3.007812 1.546875 -3.0625 C 1.148438 -3.113281 0.898438 -3.160156 0.796875 -3.203125 L 0.71875 -3.203125 Z M 0.71875 -7.03125 "/></g></g></g><g fill="#000000" fill-opacity="1"><g transform="translate(65.150553, 27.458271)"><g><path d="M 0.328125 -7.0625 L 6.9375 -7.0625 L 6.9375 -5.734375 L 5.328125 -5.734375 L 5.328125 0.234375 L 2 0.234375 L 2 -5.734375 L 0.328125 -5.734375 Z M 0.328125 -7.0625 "/></g></g></g></svg>